<svg width="170" height="170" viewBox="0 0 170 170" fill="none" xmlns="http://www.w3.org/2000/svg">
<path d="M37.9037 123.359L17.5857 149.483L41.0341 146.552L46.8961 167.069L67.4133 140.69L67.5069 140.569C63.4445 136.469 58.9953 132.773 54.2233 129.525C48.9948 126.949 43.5283 124.886 37.9037 123.359Z" fill="#EF2648"/>
<path d="M132.095 123.359C126.471 124.883 121.004 126.943 115.775 129.514C111.004 132.758 106.557 136.458 102.495 140.558L123.103 167.069L128.965 146.552L152.413 149.483L132.095 123.359Z" fill="#EF2648"/>
<path d="M146.551 76.2069C146.551 63.9257 154.204 49.4757 148.465 39.5689C142.547 29.3367 126.005 28.8151 115.775 22.8973C105.86 17.1495 97.2805 2.93091 84.9993 2.93091C72.7182 2.93091 64.1391 17.1521 54.2234 22.8883C43.9911 28.8091 27.4513 29.3367 21.5335 39.5599C15.7947 49.4757 23.4474 63.9257 23.4474 76.2066C23.4474 88.4874 15.7944 102.938 21.5335 112.845C27.4513 123.077 43.9941 123.598 54.2234 129.516C64.1391 135.264 72.7182 149.483 84.9993 149.483C97.2805 149.483 105.86 135.261 115.775 129.525C126.007 123.604 142.547 123.077 148.465 112.854C154.204 102.938 146.551 88.4881 146.551 76.2069Z" fill="#FFA511"/>
<path d="M84.9997 126.034C112.519 126.034 134.827 103.726 134.827 76.2067C134.827 48.6877 112.519 26.3792 84.9997 26.3792C57.4806 26.3792 35.1721 48.6877 35.1721 76.2067C35.1721 103.726 57.4806 126.034 84.9997 126.034Z" fill="#FFDC13"/>
<path d="M114.081 64.4827H93.995L87.787 45.3813C87.283 43.8427 85.6239 43.0073 84.0882 43.5113C83.203 43.8015 82.5084 44.4961 82.2182 45.3813L76.0046 64.4827H55.9184C54.3004 64.4827 52.9872 65.7959 52.9872 67.4139C52.9872 68.3519 53.4358 69.2341 54.1948 69.7853L70.4444 81.5943L64.2364 100.699C63.735 102.237 64.5794 103.891 66.118 104.392C67.0118 104.682 67.988 104.527 68.747 103.976L84.9996 92.1665L101.249 103.973C102.559 104.925 104.391 104.635 105.344 103.325C105.895 102.566 106.05 101.587 105.76 100.696L99.5519 81.5916L115.802 69.7826C117.109 68.83 117.396 66.9952 116.443 65.688C115.892 64.9313 115.016 64.4857 114.081 64.4827Z" fill="#EF2648"/>
<path d="M151.003 38.1036C146.654 30.5884 137.896 27.807 129.425 25.1221C125.207 23.9614 121.124 22.361 117.241 20.3505C113.718 18.0642 110.444 15.4119 107.477 12.4369C101.193 6.60377 94.0681 0 84.9996 0C75.9312 0 68.8058 6.60377 62.5185 12.4336C59.5521 15.4086 56.2813 18.0642 52.7581 20.3502C48.8743 22.358 44.7917 23.9524 40.5768 25.1102C32.1061 27.795 23.3481 30.5764 18.9985 38.0916C14.7983 45.3518 16.6975 54.2124 18.5353 62.7708C19.6463 67.1702 20.3117 71.6723 20.5165 76.2068C20.3083 80.741 19.6429 85.243 18.5323 89.6428C16.7061 98.2072 14.7953 107.062 18.9955 114.31C22.3367 119.334 27.3371 123.03 33.1201 124.754L15.2701 147.683C14.2763 148.961 14.5081 150.802 15.7861 151.795C16.3987 152.273 17.1783 152.487 17.9493 152.39L38.9061 149.773L44.0794 167.875C44.3813 168.936 45.2548 169.736 46.3393 169.947C46.5239 169.982 46.7085 170 46.8961 170C47.8018 170 48.6548 169.584 49.2117 168.869L67.9292 144.793C72.5368 149.278 78.5864 151.977 84.9996 152.414C91.4128 151.977 97.4624 149.278 102.07 144.793L120.788 168.86C121.341 169.578 122.197 169.997 123.103 170C123.291 170 123.475 169.982 123.66 169.947C124.744 169.736 125.618 168.936 125.92 167.875L131.093 149.776L152.05 152.393C153.656 152.596 155.122 151.455 155.324 149.849C155.42 149.078 155.207 148.299 154.729 147.686L136.893 124.757C142.673 123.031 147.665 119.334 151.003 114.311C155.204 107.051 153.304 98.1899 151.467 89.6315C150.356 85.2351 149.69 80.7387 149.482 76.2075C149.691 71.6733 150.356 67.1712 151.467 62.7715C153.292 54.2064 155.204 45.3518 151.003 38.1036ZM48.1272 160.711L43.851 145.745C43.4522 144.356 42.1042 143.465 40.6708 143.644L24.2572 145.696L38.9682 126.784L40.5891 127.303C44.801 128.461 48.878 130.058 52.7587 132.063C56.2819 134.349 59.5558 137.002 62.5221 139.977L63.5305 140.909L48.1272 160.711ZM145.757 145.696L129.343 143.644C127.91 143.466 126.562 144.357 126.163 145.746L121.872 160.712L106.472 140.913L107.481 139.981C110.447 137.006 113.718 134.35 117.241 132.064C121.125 130.056 125.208 128.462 129.422 127.304L131.043 126.785L145.757 145.696ZM145.733 90.862C147.413 98.685 148.996 106.074 145.93 111.379C142.706 116.93 135.399 119.252 127.652 121.711C123.03 122.995 118.56 124.762 114.31 126.987C110.406 129.49 106.78 132.403 103.5 135.683C97.4651 141.276 91.7701 146.552 84.9993 146.552C78.2285 146.552 72.5335 141.276 66.5015 135.683C63.2187 132.403 59.5959 129.49 55.6889 126.987C51.4389 124.762 46.9661 122.995 42.3439 121.711C34.5973 119.252 27.2783 116.93 24.0659 111.379C21 106.077 22.5827 98.688 24.2622 90.862C25.4698 86.0638 26.179 81.1514 26.3785 76.2068C26.1823 71.2622 25.4727 66.3498 24.2652 61.5516C22.5857 53.7286 21.0029 46.3396 24.0689 41.0344C27.2929 35.4832 34.6003 33.1616 42.3469 30.7026C46.9691 29.419 51.4389 27.6512 55.6889 25.4266C59.5929 22.9234 63.2187 20.0102 66.4985 16.7304C72.5335 11.138 78.2285 5.86201 84.9993 5.86201C91.7701 5.86201 97.4651 11.138 103.497 16.7304C106.78 20.0102 110.403 22.9238 114.31 25.4266C118.56 27.6512 123.032 29.4186 127.655 30.7026C135.401 33.1616 142.72 35.4832 145.933 41.0344C148.999 46.3366 147.416 53.7256 145.736 61.5516C144.529 66.3498 143.82 71.2622 143.62 76.2068C143.817 81.1514 144.526 86.0638 145.733 90.862Z" fill="black"/>
<path d="M84.9997 23.4485C55.8623 23.4485 32.2409 47.0699 32.2409 76.2072C32.2409 105.345 55.8623 128.966 84.9997 128.966C114.137 128.966 137.758 105.345 137.758 76.2072C137.723 47.0841 114.122 23.4837 84.9997 23.4485ZM84.9997 123.104C59.0982 123.104 38.1033 102.109 38.1033 76.2072C38.1033 50.3058 59.0979 29.3105 84.9997 29.3105C110.901 29.3105 131.896 50.3055 131.896 76.2069C131.867 102.094 110.886 123.074 84.9997 123.104Z" fill="black"/>
<path d="M114.081 61.5516H96.1373L90.5685 44.4726C89.5571 41.398 86.2451 39.7242 83.1705 40.7356C81.4001 41.316 80.0139 42.7052 79.4335 44.4726L73.8763 61.5516H55.9177C52.6791 61.5486 50.0557 64.172 50.0527 67.4106C50.0527 69.2866 50.9496 71.048 52.4649 72.153L66.9913 82.7047L61.4427 99.7837C60.4433 102.861 62.1257 106.17 65.2063 107.17C66.9913 107.75 68.9463 107.44 70.4647 106.338L84.9997 95.7887L99.5287 106.34C101.575 107.862 104.377 107.862 106.422 106.34C108.501 104.863 109.365 102.202 108.55 99.7867L103.002 82.7047L117.528 72.153C120.146 70.2479 120.723 66.5812 118.818 63.9638C117.716 62.4488 115.954 61.5516 114.081 61.5516ZM114.081 67.4136L97.8317 79.217C96.8031 79.9644 96.3751 81.2892 96.7679 82.4968L102.976 101.601L86.7233 89.7952C85.6973 89.0508 84.3051 89.0508 83.2794 89.7952L67.0268 101.601L73.2318 82.4968C73.6246 81.2892 73.1937 79.9674 72.168 79.22L55.9184 67.4136H76.0046C77.2737 67.4136 78.3992 66.5958 78.792 65.3882L85 46.2838L91.208 65.3853C91.6008 66.5929 92.7264 67.4106 93.9954 67.4106L114.081 67.4136Z" fill="black"/>
</svg>
