<svg width="170" height="170" viewBox="0 0 170 170" fill="none" xmlns="http://www.w3.org/2000/svg">
<path d="M146.754 90.8603L146.758 90.857V61.7578C146.758 56.2561 151.217 51.7969 156.719 51.7969C162.221 51.7969 166.68 56.2561 166.68 61.7578V106.061C166.68 109.584 165.282 112.96 162.788 115.454L142.063 136.179C140.818 137.424 140.117 139.114 140.117 140.874V145.762H106.914V122.901C106.914 119.379 108.312 115.998 110.805 113.508L133.075 91.2389C136.833 87.4803 142.843 87.3508 146.754 90.8603Z" fill="#FEBDAD"/>
<path d="M146.758 145.762V166.68H100.273V145.762H106.914H140.117H146.758Z" fill="#4DBBEB"/>
<path d="M85 3.32031C110.629 3.32031 131.484 24.1719 131.484 49.8047C131.484 75.4375 110.629 96.2891 85 96.2891C59.3705 96.2891 38.5156 75.4375 38.5156 49.8047C38.5156 24.1719 59.3705 3.32031 85 3.32031Z" fill="#FEB756"/>
<path d="M69.7266 145.762V166.68H23.2422V145.762H29.8828H63.0859H69.7266Z" fill="#4DBBEB"/>
<path d="M23.2455 90.8603C27.1568 87.3508 33.1666 87.4803 36.9252 91.2389L59.1945 113.508C61.6881 115.998 63.0859 119.379 63.0859 122.901V145.762H29.8828V140.874C29.8828 139.114 29.1822 137.424 27.9371 136.179L7.21172 115.454C4.71816 112.96 3.32031 109.584 3.32031 106.061V61.7578C3.32031 56.2561 7.77949 51.7969 13.2812 51.7969C18.783 51.7969 23.2422 56.2561 23.2422 61.7578V90.857L23.2455 90.8603Z" fill="#FEBDAD"/>
<path d="M65.0781 26.5625C66.9109 26.5625 68.3984 25.075 68.3984 23.2422C68.3984 21.4094 66.9109 19.9219 65.0781 19.9219C63.2453 19.9219 61.7578 21.4094 61.7578 23.2422C61.7578 25.075 63.2453 26.5625 65.0781 26.5625Z" fill="black"/>
<path d="M85 59.7656C83.5816 59.7656 82.0502 58.8735 80.6886 57.2538C79.5089 55.85 77.4141 55.669 76.0106 56.8491C74.6068 58.0291 74.4258 60.1236 75.6055 61.5271C77.3805 63.6384 79.4677 65.1097 81.6797 65.8514V69.7266C81.6797 71.5604 83.1665 73.0469 85 73.0469C86.8335 73.0469 88.3203 71.5604 88.3203 69.7266V65.8352C92.1848 64.4645 94.9609 60.774 94.9609 56.4453C94.9609 50.9529 90.4925 46.4844 85 46.4844C83.1692 46.4844 81.6797 44.9949 81.6797 43.1641C81.6797 41.3332 83.1692 39.8438 85 39.8438C86.1761 39.8438 87.4179 40.4437 88.5909 41.5793C89.9094 42.8546 92.0108 42.8197 93.2862 41.5022C94.5612 40.1844 94.5266 38.0823 93.2091 36.807C91.5241 35.1764 89.838 34.254 88.3203 33.7506V29.8828C88.3203 28.049 86.8335 26.5625 85 26.5625C83.1665 26.5625 81.6797 28.049 81.6797 29.8828V33.7742C77.8152 35.1448 75.0391 38.8354 75.0391 43.1641C75.0391 48.6565 79.5075 53.125 85 53.125C86.8308 53.125 88.3203 54.6145 88.3203 56.4453C88.3203 58.2761 86.8308 59.7656 85 59.7656Z" fill="black"/>
<path d="M156.719 48.4766C149.395 48.4766 143.438 54.4345 143.438 61.7578V85.4217C139.027 84.2858 134.16 85.4589 130.727 88.8911L108.459 111.159C105.322 114.292 103.594 118.462 103.594 122.901V142.441H100.273C98.44 142.441 96.9531 143.928 96.9531 145.762V166.68C96.9531 168.513 98.44 170 100.273 170H146.758C148.591 170 150.078 168.513 150.078 166.68V145.762C150.078 143.928 148.591 142.441 146.758 142.441H143.438V140.874C143.438 140.001 143.792 139.146 144.411 138.527L165.136 117.802C168.273 114.665 170 110.495 170 106.061V61.7578C170 54.4345 164.042 48.4766 156.719 48.4766ZM143.438 163.359H103.594V149.082H143.438V163.359ZM163.359 106.061C163.359 108.722 162.323 111.224 160.44 113.106L139.715 133.832C137.86 135.686 136.797 138.253 136.797 140.874V142.441H110.234V122.901C110.234 120.238 111.27 117.736 113.153 115.856L135.423 93.5867C137.915 91.0941 141.918 90.9822 144.537 93.3317C144.556 93.3483 144.575 93.3652 144.594 93.3815C144.67 93.4462 144.741 93.5159 144.812 93.5877C146.067 94.8411 146.758 96.5079 146.758 98.2812C146.758 100.055 146.067 101.721 144.812 102.976L128.313 119.474C127.017 120.771 127.017 122.873 128.313 124.17C129.61 125.467 131.712 125.467 133.009 124.17L149.507 107.673C152.016 105.165 153.398 101.83 153.398 98.2812C153.398 95.0141 152.224 91.9288 150.078 89.5023V61.7578C150.078 58.0962 153.057 55.1172 156.719 55.1172C160.38 55.1172 163.359 58.0962 163.359 61.7578V106.061Z" fill="black"/>
<path d="M69.7266 142.441H66.4062V122.901C66.4062 118.462 64.6784 114.292 61.5427 111.16L39.2733 88.8911C35.8405 85.4582 30.9732 84.2855 26.5625 85.4217V61.7578C26.5625 54.4345 20.6045 48.4766 13.2812 48.4766C5.95797 48.4766 0 54.4345 0 61.7578V106.061C0 110.495 1.72723 114.665 4.86359 117.802L25.589 138.527C26.2079 139.146 26.5625 140.001 26.5625 140.874V142.441H23.2422C21.4087 142.441 19.9219 143.928 19.9219 145.762V166.68C19.9219 168.513 21.4087 170 23.2422 170H69.7266C71.56 170 73.0469 168.513 73.0469 166.68V145.762C73.0469 143.928 71.56 142.441 69.7266 142.441ZM30.2849 133.832L9.55951 113.106C7.67723 111.224 6.64062 108.722 6.64062 106.061V61.7578C6.64062 58.0962 9.61961 55.1172 13.2812 55.1172C16.9429 55.1172 19.9219 58.0962 19.9219 61.7578V89.502C17.7763 91.9285 16.6016 95.0134 16.6016 98.2812C16.6016 101.83 17.9838 105.165 20.4926 107.671L37.0942 124.273C38.3911 125.57 40.4929 125.57 41.7901 124.273C43.0867 122.976 43.0867 120.874 41.7901 119.577L25.1876 102.975C23.9331 101.721 23.2422 100.055 23.2422 98.2812C23.2422 96.5079 23.9331 94.8411 25.1866 93.588C25.2589 93.5159 25.3303 93.4462 25.4057 93.3815L25.4628 93.3317C28.0809 90.9822 32.0848 91.0944 34.5771 93.5867L56.8481 115.857C58.7294 117.736 59.7653 120.237 59.7653 122.901V142.441H33.2028V140.874C33.2031 138.253 32.1396 135.686 30.2849 133.832ZM66.4062 163.359H26.5625V149.082H66.4062V163.359Z" fill="black"/>
<path d="M134.805 49.8047C134.805 22.3424 112.462 0 85 0C57.5377 0 35.1953 22.3424 35.1953 49.8047C35.1953 77.267 57.5377 99.6094 85 99.6094C112.462 99.6094 134.805 77.267 134.805 49.8047ZM85 92.9688C61.199 92.9688 41.8359 73.6054 41.8359 49.8047C41.8359 26.004 61.199 6.64062 85 6.64062C108.801 6.64062 128.164 26.004 128.164 49.8047C128.164 73.6054 108.801 92.9688 85 92.9688Z" fill="black"/>
<path d="M107.928 21.3726C99.2883 14.3967 87.9806 11.7656 76.9094 14.1526C75.1168 14.5391 73.9769 16.3055 74.3634 18.0981C74.7499 19.8904 76.5166 21.0293 78.3089 20.6438C87.4096 18.6815 96.6852 20.8301 103.757 26.539C110.827 32.2483 114.883 40.7281 114.883 49.8048C114.883 66.2822 101.477 79.6876 85 79.6876C68.5226 79.6876 55.1172 66.2822 55.1172 49.8048C55.1172 44.8828 56.3391 40.0039 58.6507 35.6961C59.5176 34.0805 58.9106 32.0677 57.295 31.2004C55.679 30.3332 53.6659 30.9404 52.7993 32.5561C49.9714 37.8264 48.4766 43.7907 48.4766 49.8048C48.4766 69.9438 64.861 86.3282 85 86.3282C105.139 86.3282 121.523 69.9438 121.523 49.8048C121.523 38.7113 116.568 28.3483 107.928 21.3726Z" fill="black"/>
</svg>
