<svg width="170" height="164" viewBox="0 0 170 164" fill="none" xmlns="http://www.w3.org/2000/svg">
<path d="M114.239 19.6655H91.5229V32.773H114.239V19.6655Z" fill="#D5F5FB"/>
<path d="M90.9275 19.6655H114.834C119.235 19.6655 122.803 16.0978 122.803 11.6967C122.803 7.29552 119.235 3.72778 114.834 3.72778H90.9275C86.5264 3.72778 82.9586 7.29552 82.9586 11.6967C82.9586 16.0978 86.5264 19.6655 90.9275 19.6655Z" fill="#FF7480"/>
<path d="M102.932 160.275C138.14 160.275 166.683 131.733 166.683 96.5239C166.683 61.3152 138.14 32.7729 102.932 32.7729C67.7229 32.7729 39.1806 61.3152 39.1806 96.5239C39.1806 131.733 67.7229 160.275 102.932 160.275Z" fill="#5DDEF5"/>
<path d="M102.932 144.712C129.545 144.712 151.12 123.138 151.12 96.5241C151.12 69.9105 129.545 48.3359 102.932 48.3359C76.3181 48.3359 54.7435 69.9105 54.7435 96.5241C54.7435 123.138 76.3181 144.712 102.932 144.712Z" fill="white"/>
<path d="M102.932 103.521C106.796 103.521 109.929 100.388 109.929 96.5238C109.929 92.6594 106.796 89.5266 102.932 89.5266C99.0671 89.5266 95.9343 92.6594 95.9343 96.5238C95.9343 100.388 99.0671 103.521 102.932 103.521Z" fill="#FF838E"/>
<path d="M169.672 89.8525C168.146 74.4998 161.287 60.026 150.358 49.097C141.019 39.7579 129.588 33.7563 117.559 31.0877V22.6513C122.472 21.4291 126.124 16.9822 126.124 11.6965C126.124 5.47145 121.059 0.407227 114.834 0.407227H90.9278C84.7028 0.407227 79.6386 5.47145 79.6386 11.6965C79.6386 16.9818 83.2903 21.4288 88.2028 22.6513V31.1113C76.2113 33.7912 64.8178 39.7844 55.5049 49.0974C53.4668 51.1354 51.5875 53.2734 49.8672 55.4954C49.7839 55.4891 49.7005 55.4828 49.6155 55.4828H25.9543C24.1208 55.4828 22.6339 56.9693 22.6339 58.8031C22.6339 60.637 24.1208 62.1235 25.9543 62.1235H45.3492C42.9147 66.1993 40.9517 70.4795 39.4576 74.8857H3.32036C1.48686 74.8857 0 76.3722 0 78.206C0 80.0399 1.48686 81.5264 3.32036 81.5264H37.5812C36.6243 85.727 36.0751 90.0019 35.9333 94.2889H21.2503C19.4168 94.2889 17.93 95.7754 17.93 97.6092C17.93 99.4431 19.4168 100.93 21.2503 100.93H36.0392C36.3195 105.227 37.0104 109.503 38.1125 113.692H16.6018C14.7683 113.692 13.2815 115.179 13.2815 117.012C13.2815 118.846 14.7683 120.333 16.6018 120.333H40.2315C43.4888 128.949 48.5793 137.026 55.5049 143.951C66.4441 154.891 80.9329 161.751 96.3015 163.269C98.4949 163.486 100.69 163.593 102.882 163.593C115.839 163.593 128.631 159.843 139.485 152.775C141.022 151.774 141.456 149.717 140.456 148.181C139.455 146.644 137.398 146.209 135.861 147.21C112.102 162.682 80.2818 159.337 60.2005 139.256C36.6386 115.694 36.6386 77.3557 60.2005 53.7934C83.7622 30.2317 122.1 30.2317 145.662 53.7934C165.717 73.8484 169.081 105.641 153.66 129.389C152.661 130.927 153.098 132.984 154.636 133.982C156.175 134.981 158.231 134.544 159.229 133.006C167.468 120.317 171.177 104.992 169.672 89.8525ZM86.2793 11.6968C86.2793 9.13348 88.3645 7.04829 90.9278 7.04829H114.834C117.398 7.04829 119.483 9.13348 119.483 11.6968C119.483 14.2601 117.398 16.3453 114.834 16.3453H114.239H91.5232H90.9278C88.3645 16.3453 86.2793 14.2598 86.2793 11.6968ZM94.8436 29.9698V22.986H110.918V29.9578C105.581 29.323 100.18 29.3269 94.8436 29.9698Z" fill="black"/>
<path d="M148.012 138.281C147.135 138.281 146.282 138.637 145.665 139.254C145.044 139.872 144.692 140.729 144.692 141.602C144.692 142.475 145.044 143.332 145.665 143.949C146.282 144.57 147.136 144.922 148.012 144.922C148.885 144.922 149.738 144.57 150.359 143.949C150.977 143.332 151.332 142.475 151.332 141.602C151.332 140.729 150.977 139.872 150.359 139.254C149.738 138.637 148.885 138.281 148.012 138.281Z" fill="black"/>
<path d="M102.932 45.0154C74.5299 45.0154 51.4232 68.1218 51.4232 96.5239C51.4232 124.926 74.5299 148.032 102.932 148.032C131.333 148.032 154.44 124.926 154.44 96.5239C154.44 68.1218 131.333 45.0154 102.932 45.0154ZM102.932 141.392C78.1913 141.392 58.0639 121.264 58.0639 96.5239C58.0639 71.7838 78.1913 51.6561 102.932 51.6561C127.672 51.6561 147.799 71.7838 147.799 96.5239C147.799 121.264 127.672 141.392 102.932 141.392Z" fill="black"/>
<path d="M123.935 70.825L107.489 87.2704C106.114 86.5904 104.567 86.2063 102.932 86.2063C101.296 86.2063 99.7494 86.5904 98.3741 87.2704L91.0138 79.9102C89.7169 78.6136 87.6151 78.6136 86.3178 79.9102C85.0212 81.2068 85.0212 83.3092 86.3178 84.6058L93.6781 91.9661C92.9978 93.3414 92.6139 94.8883 92.6139 96.5236C92.6139 102.213 97.2422 106.841 102.932 106.841C108.621 106.841 113.249 102.213 113.249 96.5236C113.249 94.8883 112.865 93.3414 112.185 91.9661L128.148 76.0031L128.631 75.5207C129.927 74.224 129.927 72.1216 128.631 70.825C127.334 69.5284 125.232 69.5284 123.935 70.825ZM102.932 100.201C100.904 100.201 99.2547 98.5514 99.2547 96.524C99.2547 94.4965 100.904 92.847 102.932 92.847C104.959 92.847 106.609 94.4965 106.609 96.524C106.609 98.5514 104.959 100.201 102.932 100.201Z" fill="black"/>
<path d="M138.433 93.2439H135.356C133.523 93.2439 132.036 94.7304 132.036 96.5642C132.036 98.398 133.523 99.8845 135.356 99.8845H138.433C140.266 99.8845 141.753 98.398 141.753 96.5642C141.753 94.7304 140.266 93.2439 138.433 93.2439Z" fill="black"/>
<path d="M70.5065 93.1628H67.4306C65.5971 93.1628 64.1103 94.6493 64.1103 96.4832C64.1103 98.317 65.5971 99.8035 67.4306 99.8035H70.5065C72.34 99.8035 73.8268 98.317 73.8268 96.4832C73.8268 94.6493 72.34 93.1628 70.5065 93.1628Z" fill="black"/>
<path d="M102.972 67.419C104.806 67.419 106.292 65.9324 106.292 64.0986V61.0227C106.292 59.1889 104.806 57.7024 102.972 57.7024C101.139 57.7024 99.6518 59.1889 99.6518 61.0227V64.0986C99.6518 65.9324 101.139 67.419 102.972 67.419Z" fill="black"/>
<path d="M102.891 125.629C101.058 125.629 99.5708 127.115 99.5708 128.949V132.025C99.5708 133.859 101.058 135.345 102.891 135.345C104.725 135.345 106.211 133.859 106.211 132.025V128.949C106.211 127.115 104.725 125.629 102.891 125.629Z" fill="black"/>
<path d="M3.32031 113.691C2.44707 113.691 1.59043 114.046 0.972852 114.664C0.355273 115.281 0 116.138 0 117.011C0 117.888 0.354941 118.741 0.972852 119.358C1.59076 119.976 2.44707 120.331 3.32031 120.331C4.19355 120.331 5.0502 119.976 5.66744 119.358C6.28502 118.741 6.64062 117.884 6.64062 117.011C6.64062 116.138 6.28535 115.281 5.66744 114.664C5.0502 114.046 4.19355 113.691 3.32031 113.691Z" fill="black"/>
</svg>
